<svg width="512" height="512" xmlns="http://www.w3.org/2000/svg"><g fill="none" fill-rule="evenodd"><path fill="#FF4655" d="M0 0h512v512H0z"/><path d="M101 111.056h3.08c25.392 0 50.784.036 76.177-.056 2.32 0 3.332.607 4.075 2.766 4.972 14.413 10.102 28.775 15.185 43.152.28.79.585 1.577.891 2.383 37.404-11.335 74.585-10.503 111.81 1.174 2.762-7.799 5.462-15.408 8.15-23.028 2.864-8.115 5.732-16.224 8.548-24.355.458-1.321.975-2.082 2.689-2.077 26.27.062 52.542.077 78.813.046.433 0 .86.072 1.582.133-1.64 4.246-3.211 8.37-4.82 12.478A1242984.65 1242984.65 0 0 0 299.749 398.55c-.68 1.746-1.503 2.455-3.543 2.45a14011.13 14011.13 0 0 0-79.341 0c-1.983 0-2.858-.556-3.575-2.389a406991.998 406991.998 0 0 0-111.324-284.89c-.306-.777-.57-1.568-.965-2.665ZM229.69 231.16c10.588 29.21 21.074 58.087 31.556 86.984l.677-.056a160941.83 160941.83 0 0 0 32.111-86.973c-21.55-8.265-42.747-8.245-64.344.045Z" fill="#FFF" fill-rule="nonzero"/></g></svg>
